<?xml version="1.0" encoding="UTF-8" standalone="no"?>
<!-- Created with Inkscape (http://www.inkscape.org/) -->

<svg
   xmlns:dc="http://purl.org/dc/elements/1.1/"
   xmlns:cc="http://creativecommons.org/ns#"
   xmlns:rdf="http://www.w3.org/1999/02/22-rdf-syntax-ns#"
   xmlns:svg="http://www.w3.org/2000/svg"
   xmlns="http://www.w3.org/2000/svg"
   xmlns:sodipodi="http://sodipodi.sourceforge.net/DTD/sodipodi-0.dtd"
   xmlns:inkscape="http://www.inkscape.org/namespaces/inkscape"
   width="65.916817mm"
   height="16.234217mm"
   viewBox="0 0 233.56352 57.522815"
   id="svg8621"
   version="1.1"
   inkscape:version="0.91 r13725"
   sodipodi:docname="spinquedesklogo.svg">
  <defs
     id="defs8623" />
  <sodipodi:namedview
     id="base"
     pagecolor="#ffffff"
     bordercolor="#666666"
     borderopacity="1.0"
     inkscape:pageopacity="0.0"
     inkscape:pageshadow="2"
     inkscape:zoom="0.35"
     inkscape:cx="-566.78967"
     inkscape:cy="-56.952875"
     inkscape:document-units="px"
     inkscape:current-layer="layer1"
     showgrid="false"
     fit-margin-top="0"
     fit-margin-left="0"
     fit-margin-right="0"
     fit-margin-bottom="0"
     inkscape:window-width="2560"
     inkscape:window-height="1016"
     inkscape:window-x="0"
     inkscape:window-y="27"
     inkscape:window-maximized="1" />
  <metadata
     id="metadata8626">
    <rdf:RDF>
      <cc:Work
         rdf:about="">
        <dc:format>image/svg+xml</dc:format>
        <dc:type
           rdf:resource="http://purl.org/dc/dcmitype/StillImage" />
        <dc:title></dc:title>
      </cc:Work>
    </rdf:RDF>
  </metadata>
  <g
     inkscape:label="Layer 1"
     inkscape:groupmode="layer"
     id="layer1"
     transform="translate(-223.21824,-417.88651)">
    <g
       transform="matrix(0.01721327,0,0,-0.01721327,213.74072,485.77912)"
       id="g4700"
       inkscape:export-filename="/home/marcella/loginscreen.png"
       inkscape:export-xdpi="75"
       inkscape:export-ydpi="75">
      <path
         inkscape:connector-curvature="0"
         id="path4702"
         style="fill:#231f20;fill-opacity:1;fill-rule:nonzero;stroke:none"
         d="m 3077.8,3921.63 c -76.13,45.27 -174.57,20.32 -219.93,-55.83 L 2370.16,3046.08 2253.2,3255 c -43.28,77.36 -141.06,104.98 -218.34,61.67 -77.34,-43.24 -104.93,-141.01 -61.66,-218.35 l 252.6,-451.48 c 0.29,-0.39 0.57,-0.75 0.76,-1.13 3.32,-5.83 6.92,-11.43 11.02,-16.83 0.54,-0.75 1.18,-1.39 1.68,-2.11 3.38,-4.33 6.97,-8.49 10.83,-12.5 1.37,-1.45 2.75,-2.81 4.12,-4.16 3.38,-3.27 6.92,-6.34 10.65,-9.42 1.38,-1.06 2.73,-2.31 4.17,-3.4 4.69,-3.59 9.58,-6.93 14.81,-9.97 0.16,-0.13 0.39,-0.24 0.5,-0.34 4.24,-2.46 8.68,-4.55 13.04,-6.57 2.14,-1.03 4.16,-2.21 6.24,-3.12 2.36,-0.98 4.83,-1.63 7.19,-2.54 17.43,-6.36 35.49,-9.88 53.48,-10.07 0.05,0 0.05,0 0.11,0.05 0.05,0 0.12,-0.02 0.14,0 19.75,-0.22 39.73,3.36 58.92,10.73 0.37,0.17 0.79,0.26 1.25,0.4 1.59,0.68 3.1,1.61 4.74,2.27 4.89,2.14 9.81,4.3 14.5,6.89 0.12,0.05 0.17,0.08 0.22,0.13 5.37,2.99 10.4,6.23 15.27,9.74 1.6,1.16 3.14,2.42 4.69,3.67 3.6,2.79 7.02,5.62 10.37,8.71 1.48,1.4 2.89,2.7 4.36,4.16 3.87,3.9 7.55,7.84 10.96,12.09 0.61,0.71 1.26,1.37 1.82,2.11 4.07,5.25 7.84,10.65 11.27,16.34 0.28,0.41 0.56,0.71 0.79,1.14 l 629.93,1058.6 c 45.29,76.16 20.32,174.56 -55.83,219.92" />
      <path
         inkscape:connector-curvature="0"
         id="path4704"
         style="fill:#ffffff;fill-opacity:1;fill-rule:nonzero;stroke:none"
         d="m 2918.18,3784.43 c 0.39,42.88 35.43,77.29 78.29,76.91 42.89,-0.38 77.28,-35.42 76.89,-78.3 -0.37,-42.84 -35.42,-77.25 -78.32,-76.86 -42.86,0.4 -77.23,35.43 -76.86,78.25" />
      <path
         inkscape:connector-curvature="0"
         id="path4706"
         style="fill:#0f85d1;fill-opacity:1;fill-rule:nonzero;stroke:none"
         d="m 2995.38,3743.61 c 10.75,-0.11 20.87,4.02 28.51,11.48 7.65,7.52 11.92,17.55 11.97,28.21 0.15,10.79 -3.96,20.95 -11.43,28.61 -7.56,7.65 -17.57,11.9 -28.32,12 l -0.06,0 c -22.06,0.2 -40.22,-17.68 -40.44,-39.87 -0.17,-22.11 17.64,-40.24 39.77,-40.43 l 0,0 z m 1.37,155.16 c 30.74,-0.26 59.55,-12.52 81.05,-34.45 21.57,-21.9 33.26,-50.88 32.99,-81.69 -0.29,-30.67 -12.49,-59.45 -34.46,-80.95 -21.89,-21.49 -50.89,-33.21 -81.66,-32.93 -63.33,0.56 -114.48,52.56 -113.95,115.95 0.62,63.5 52.69,114.65 116.03,114.07 l 0,0" />
      <path
         inkscape:connector-curvature="0"
         id="path4708"
         style="fill:#ffffff;fill-opacity:1;fill-rule:nonzero;stroke:none"
         d="m 2288.28,2725.83 c 0.39,42.85 35.46,77.29 78.28,76.91 42.83,-0.4 77.28,-35.47 76.88,-78.3 -0.39,-42.8 -35.46,-77.23 -78.28,-76.86 -42.82,0.39 -77.24,35.46 -76.88,78.25" />
      <path
         inkscape:connector-curvature="0"
         id="path4710"
         style="fill:#0f85d1;fill-opacity:1;fill-rule:nonzero;stroke:none"
         d="m 2365.49,2685.01 c 22.15,-0.19 40.3,17.65 40.52,39.78 0.24,22.13 -17.64,40.31 -39.78,40.52 -22.15,0.2 -40.3,-17.66 -40.53,-39.8 -0.17,-22.13 17.66,-40.3 39.79,-40.5 l 0,0 z m 1.4,155.16 c 63.47,-0.56 114.55,-52.65 113.98,-116.07 -0.61,-63.4 -52.66,-114.55 -116.05,-113.97 -63.4,0.57 -114.54,52.64 -113.98,116.04 0.6,63.44 52.66,114.57 116.05,114 l 0,0" />
      <path
         inkscape:connector-curvature="0"
         id="path4712"
         style="fill:#ffffff;fill-opacity:1;fill-rule:nonzero;stroke:none"
         d="m 2035.61,3177.34 c 0.37,42.89 35.48,77.3 78.33,76.91 42.83,-0.38 77.22,-35.42 76.85,-78.3 -0.4,-42.8 -35.43,-77.24 -78.25,-76.86 -42.86,0.38 -77.29,35.46 -76.93,78.25" />
      <path
         inkscape:connector-curvature="0"
         id="path4714"
         style="fill:#0f85d1;fill-opacity:1;fill-rule:nonzero;stroke:none"
         d="m 2112.87,3136.52 c 22.11,-0.2 40.3,17.64 40.49,39.77 0.2,22.14 -17.68,40.34 -39.76,40.54 -10.73,0.1 -20.9,-4 -28.55,-11.51 -7.65,-7.5 -11.92,-17.55 -11.97,-28.25 -0.22,-22.18 17.62,-40.34 39.79,-40.55 l 0,0 z m 1.4,155.16 c 63.35,-0.56 114.49,-52.62 113.93,-116.02 -0.57,-63.47 -52.61,-114.59 -116.01,-114.03 -63.42,0.57 -114.56,52.64 -114,116.06 0.25,30.73 12.48,59.51 34.43,81.08 21.91,21.52 50.91,33.19 81.65,32.91 l 0,0" />
      <path
         inkscape:connector-curvature="0"
         id="path4716"
         style="fill:#231f20;fill-opacity:1;fill-rule:nonzero;stroke:none"
         d="m 1664.27,1071.54 c 76.52,-44.57 174.75,-18.71 219.38,57.84 l 480.35,824.05 118.82,-207.84 c 43.95,-77 141.98,-103.71 218.89,-59.74 76.95,43.95 103.65,141.97 59.7,218.91 l -256.68,449.2 c -0.28,0.39 -0.57,0.76 -0.75,1.11 -3.37,5.79 -7.03,11.39 -11.16,16.75 -0.57,0.74 -1.18,1.37 -1.75,2.09 -3.36,4.3 -7.03,8.43 -10.9,12.4 -1.4,1.45 -2.79,2.79 -4.19,4.12 -3.4,3.24 -6.96,6.28 -10.7,9.3 -1.4,1.08 -2.75,2.31 -4.21,3.39 -4.73,3.54 -9.64,6.84 -14.87,9.86 -0.2,0.11 -0.42,0.22 -0.54,0.3 -4.27,2.43 -8.71,4.47 -13.09,6.46 -2.14,1.01 -4.16,2.16 -6.27,3.08 -2.38,0.95 -4.85,1.57 -7.22,2.45 -17.48,6.22 -35.58,9.57 -53.56,9.61 -0.05,0 -0.05,0 -0.11,-0.06 -0.06,0 -0.12,0.02 -0.15,0 -19.75,0.06 -39.7,-3.7 -58.81,-11.27 -0.36,-0.17 -0.78,-0.25 -1.24,-0.41 -1.59,-0.69 -3.11,-1.64 -4.71,-2.32 -4.89,-2.18 -9.79,-4.38 -14.45,-7.01 -0.11,-0.05 -0.17,-0.08 -0.22,-0.13 -5.34,-3.06 -10.35,-6.32 -15.18,-9.88 -1.58,-1.17 -3.11,-2.43 -4.66,-3.7 -3.54,-2.84 -6.97,-5.7 -10.28,-8.83 -1.47,-1.38 -2.88,-2.72 -4.31,-4.18 -3.85,-3.93 -7.49,-7.91 -10.87,-12.18 -0.62,-0.71 -1.24,-1.38 -1.8,-2.12 -4.05,-5.29 -7.76,-10.74 -11.13,-16.44 -0.26,-0.42 -0.56,-0.73 -0.78,-1.15 L 1606.46,1290.95 c -44.62,-76.54 -18.77,-174.74 57.81,-219.41" />
      <path
         inkscape:connector-curvature="0"
         id="path4718"
         style="fill:#ffffff;fill-opacity:1;fill-rule:nonzero;stroke:none"
         d="m 1822.64,1210.19 c -0.03,-42.89 -34.73,-77.62 -77.59,-77.62 -42.87,0 -77.62,34.73 -77.58,77.62 -0.04,42.83 34.71,77.56 77.62,77.56 42.82,0 77.52,-34.73 77.55,-77.56" />
      <path
         inkscape:connector-curvature="0"
         id="path4720"
         style="fill:#0f85d1;fill-opacity:1;fill-rule:nonzero;stroke:none"
         d="m 1745.09,1250.32 c -10.76,0 -20.82,-4.22 -28.44,-11.75 -7.56,-7.59 -11.75,-17.65 -11.72,-28.33 -0.03,-10.79 4.16,-20.9 11.72,-28.49 7.62,-7.58 17.68,-11.75 28.4,-11.75 l 0.07,0 c 22.08,0 40.06,18.05 40.09,40.24 -0.03,22.08 -18.01,40.08 -40.12,40.08 l 0,0 z m 0.03,-155.18 c -30.77,0 -59.69,11.97 -81.39,33.72 -21.75,21.69 -33.72,50.58 -33.68,81.38 -0.04,30.69 11.93,59.58 33.68,81.26 21.7,21.71 50.62,33.68 81.36,33.68 63.36,0 114.95,-51.54 115.02,-114.94 -0.07,-63.5 -51.66,-115.1 -114.99,-115.1 l 0,0" />
      <path
         inkscape:connector-curvature="0"
         id="path4722"
         style="fill:#ffffff;fill-opacity:1;fill-rule:nonzero;stroke:none"
         d="m 2442.96,2274.4 c 0,-42.84 -34.73,-77.6 -77.55,-77.6 -42.85,0 -77.62,34.76 -77.62,77.6 0.04,42.8 34.8,77.56 77.62,77.56 42.82,0 77.55,-34.76 77.55,-77.56" />
      <path
         inkscape:connector-curvature="0"
         id="path4724"
         style="fill:#0f85d1;fill-opacity:1;fill-rule:nonzero;stroke:none"
         d="m 2365.41,2314.54 c -22.14,0 -40.12,-18.02 -40.18,-40.16 0,-22.13 18.01,-40.15 40.18,-40.15 22.14,0 40.13,18.02 40.13,40.17 0,22.12 -17.99,40.14 -40.13,40.14 l 0,0 z m 0,-155.19 c -63.45,0 -115.05,51.62 -115.05,115.05 0.07,63.43 51.65,115.02 115.05,115.02 63.4,0 114.98,-51.61 114.98,-115.02 0,-63.43 -51.58,-115.05 -114.98,-115.05 l 0,0" />
      <path
         inkscape:connector-curvature="0"
         id="path4726"
         style="fill:#ffffff;fill-opacity:1;fill-rule:nonzero;stroke:none"
         d="m 2699.7,1825.17 c 0,-42.88 -34.76,-77.61 -77.62,-77.61 -42.82,0 -77.53,34.73 -77.55,77.61 0,42.82 34.73,77.56 77.55,77.56 42.86,0 77.62,-34.74 77.62,-77.56" />
      <path
         inkscape:connector-curvature="0"
         id="path4728"
         style="fill:#0f85d1;fill-opacity:1;fill-rule:nonzero;stroke:none"
         d="m 2622.08,1865.3 c -22.12,0 -40.12,-17.99 -40.12,-40.13 0,-22.13 18.03,-40.18 40.12,-40.18 10.73,0 20.85,4.21 28.44,11.8 7.58,7.53 11.75,17.65 11.72,28.32 0,22.2 -17.99,40.19 -40.16,40.19 l 0,0 z m 0,-155.17 c -63.34,0 -114.96,51.59 -114.99,114.98 0,63.52 51.6,115.1 114.99,115.1 63.43,0 115.04,-51.58 115.04,-115.04 0.02,-30.74 -11.94,-59.63 -33.68,-81.38 -21.73,-21.69 -50.62,-33.66 -81.36,-33.66 l 0,0" />
      <path
         inkscape:connector-curvature="0"
         id="path4730"
         style="fill:#231f20;fill-opacity:1;fill-rule:nonzero;stroke:none"
         d="m 3471.13,1269.27 c 76.91,43.94 103.66,141.97 59.65,218.91 l -473.49,828.02 239.42,-1.07 c 88.62,-0.4 160.79,71.12 161.12,159.73 0.43,88.59 -71.09,160.72 -159.72,161.1 l -517.36,2.37 c -0.46,-0.06 -0.87,-0.12 -1.29,-0.12 -6.71,-0.03 -13.41,-0.41 -20.1,-1.26 -0.93,-0.14 -1.79,-0.36 -2.67,-0.48 -5.42,-0.79 -10.81,-1.88 -16.21,-3.26 -1.94,-0.5 -3.82,-1.02 -5.65,-1.57 -4.52,-1.3 -8.94,-2.89 -13.4,-4.61 -1.65,-0.69 -3.37,-1.25 -5.06,-1.95 -5.45,-2.35 -10.73,-4.95 -15.96,-7.95 -0.22,-0.11 -0.39,-0.27 -0.5,-0.33 -4.28,-2.46 -8.24,-5.31 -12.2,-8.1 -1.91,-1.34 -3.93,-2.49 -5.79,-3.9 -2.03,-1.54 -3.78,-3.39 -5.7,-5 -14.14,-12.04 -26.08,-26.01 -35.1,-41.56 -0.06,-0.06 -0.06,-0.06 -0.06,-0.18 0,-0.04 -0.02,-0.04 -0.02,-0.08 -9.92,-17.09 -16.64,-36.26 -19.65,-56.58 -0.06,-0.42 -0.2,-0.83 -0.25,-1.3 -0.23,-1.69 -0.18,-3.52 -0.37,-5.21 -0.59,-5.35 -1.13,-10.66 -1.17,-16.05 0,-0.13 0,-0.16 0,-0.25 0,-6.14 0.33,-12.12 1,-18.05 0.17,-1.99 0.56,-3.95 0.85,-5.91 0.67,-4.49 1.46,-8.92 2.5,-13.31 0.48,-1.97 0.95,-3.89 1.49,-5.82 1.46,-5.32 3.08,-10.46 5.11,-15.54 0.28,-0.86 0.57,-1.75 0.9,-2.62 2.59,-6.12 5.46,-12.08 8.71,-17.84 0.22,-0.4 0.33,-0.86 0.59,-1.26 L 3252.2,1328.91 c 44,-76.96 142.01,-103.64 218.93,-59.64" />
      <path
         inkscape:connector-curvature="0"
         id="path4732"
         style="fill:#ffffff;fill-opacity:1;fill-rule:nonzero;stroke:none"
         d="m 3430.28,1475.77 c 37.13,-21.48 49.84,-68.97 28.43,-106.02 -21.44,-37.15 -68.87,-49.89 -106.03,-28.42 -37.08,21.4 -49.79,68.84 -28.38,105.98 21.44,37.16 68.85,49.8 105.98,28.46" />
      <path
         inkscape:connector-curvature="0"
         id="path4734"
         style="fill:#0f85d1;fill-opacity:1;fill-rule:nonzero;stroke:none"
         d="m 3391.58,1448.73 c -14.34,0 -27.68,-7.71 -34.86,-20.13 -5.35,-9.28 -6.79,-20.12 -4.01,-30.46 2.79,-10.41 9.42,-19.05 18.69,-24.4 18.83,-10.83 44.17,-3.81 54.91,14.68 11.05,19.16 4.44,43.84 -14.79,54.9 -6.12,3.59 -12.87,5.41 -19.94,5.41 l 0,0 z m -0.11,-155.24 c -20.13,0 -40.02,5.35 -57.5,15.41 -26.59,15.34 -45.64,40.18 -53.59,69.86 -7.96,29.67 -3.86,60.69 11.5,87.27 20.5,35.47 58.7,57.54 99.7,57.54 20.06,0 39.92,-5.33 57.37,-15.39 54.98,-31.81 73.86,-102.29 42.16,-157.19 -20.48,-35.47 -58.68,-57.5 -99.64,-57.5 l 0,0" />
      <path
         inkscape:connector-curvature="0"
         id="path4736"
         style="fill:#ffffff;fill-opacity:1;fill-rule:nonzero;stroke:none"
         d="m 2818.82,2545.06 c 37.1,-21.41 49.83,-68.89 28.41,-105.99 -21.43,-37.1 -68.9,-49.8 -106.02,-28.39 -37.04,21.41 -49.79,68.88 -28.38,105.98 21.41,37.08 68.9,49.79 105.99,28.4" />
      <path
         inkscape:connector-curvature="0"
         id="path4738"
         style="fill:#0f85d1;fill-opacity:1;fill-rule:nonzero;stroke:none"
         d="m 2780.11,2518.01 c -14.34,0 -27.71,-7.68 -34.88,-20.08 -11.04,-19.16 -4.44,-43.76 14.69,-54.83 18.78,-10.79 44.18,-3.81 54.89,14.68 11.04,19.18 4.47,43.79 -14.72,54.86 -6.16,3.57 -12.91,5.37 -19.98,5.37 l 0,0 z m -0.18,-155.16 c -20.05,0 -39.96,5.32 -57.41,15.4 -54.91,31.71 -73.79,102.21 -42.12,157.09 20.51,35.52 58.71,57.53 99.71,57.53 20.11,0 39.95,-5.31 57.43,-15.39 54.91,-31.74 73.79,-102.21 42.1,-157.13 -20.49,-35.46 -58.68,-57.5 -99.71,-57.5 l 0,0" />
      <path
         inkscape:connector-curvature="0"
         id="path4740"
         style="fill:#ffffff;fill-opacity:1;fill-rule:nonzero;stroke:none"
         d="m 3336.19,2542.75 c 37.17,-21.43 49.82,-68.87 28.41,-105.99 -21.41,-37.1 -68.82,-49.8 -105.99,-28.39 -37.07,21.42 -49.81,68.89 -28.4,105.99 21.45,37.09 68.92,49.79 105.98,28.39" />
      <path
         inkscape:connector-curvature="0"
         id="path4742"
         style="fill:#0f85d1;fill-opacity:1;fill-rule:nonzero;stroke:none"
         d="m 3297.49,2515.7 c -14.33,0 -27.7,-7.68 -34.83,-20.05 -11.08,-19.19 -4.51,-43.8 14.66,-54.9 18.64,-10.64 44.18,-3.75 54.85,14.71 5.4,9.34 6.8,20.17 4.02,30.54 -2.79,10.33 -9.42,18.94 -18.69,24.3 -6.21,3.59 -12.93,5.4 -20.01,5.4 l 0,0 z m -0.17,-155.15 c -20.06,0 -39.89,5.29 -57.41,15.35 -54.93,31.8 -73.81,102.28 -42.12,157.16 20.52,35.48 58.7,57.52 99.7,57.52 20.1,0 39.96,-5.34 57.44,-15.41 26.59,-15.3 45.63,-40.12 53.56,-69.79 7.99,-29.67 3.87,-60.7 -11.49,-87.33 -20.43,-35.47 -58.65,-57.5 -99.68,-57.5 l 0,0" />
      <path
         inkscape:connector-curvature="0"
         id="path4744"
         style="fill:#0f85d1;fill-opacity:1;fill-rule:nonzero;stroke:none"
         d="m 4427.98,2553.8 c 0,74.53 15.62,143.03 46.87,205.58 31.25,62.49 73.96,116 128.08,160.52 54.07,44.47 119.03,78.73 194.79,102.79 75.71,24 158.04,36.08 247.07,36.08 72.11,-2.42 141.85,-13.27 209.17,-32.46 57.73,-16.86 116.63,-43.91 176.76,-81.16 60.08,-37.28 110.55,-89.61 151.46,-156.91 16.82,-33.7 25.3,-62.58 25.3,-86.58 0,-36.08 -12.65,-67.33 -37.89,-93.77 -25.23,-26.5 -55.91,-39.64 -92,-39.64 -43.27,0 -80.58,19.16 -111.78,57.68 -45.74,55.28 -91.44,95.58 -137.07,120.83 -45.7,25.27 -107.01,37.91 -183.95,37.91 -103.41,0 -186.37,-22.31 -248.86,-66.77 -62.55,-44.51 -93.8,-99.19 -93.8,-164.1 0,-86.55 30.01,-149.67 90.15,-189.35 60.07,-39.7 144.26,-59.54 252.51,-59.54 88.9,0 173.1,-11.43 252.45,-34.26 79.36,-22.87 148.49,-57.15 207.39,-102.82 58.9,-45.69 105.83,-102.23 140.73,-169.51 34.79,-67.32 52.26,-145.52 52.26,-234.46 0,-91.42 -17.47,-170.74 -52.26,-238.02 -34.9,-67.38 -83.01,-123.89 -144.32,-169.56 -61.33,-45.69 -132.25,-79.35 -212.79,-100.99 -80.59,-21.64 -165.39,-32.43 -254.31,-32.43 -19.28,0 -54.68,3.03 -106.38,9 -51.77,5.95 -108.81,22.22 -171.32,48.67 -62.6,26.44 -125.71,66.77 -189.39,120.83 -63.73,54.11 -117.24,129.19 -160.51,225.45 -7.2,16.81 -10.79,33.66 -10.79,50.5 0,36.07 12.58,67.94 37.88,95.57 25.24,27.62 58.23,41.47 99.14,41.47 28.89,0 54.12,-7.81 75.75,-23.43 21.64,-15.65 38.45,-36.67 50.48,-63.09 31.24,-72.16 84.18,-128.7 158.77,-169.53 74.47,-40.94 150.22,-61.35 227.22,-61.35 50.46,0 99.19,4.16 146.07,12.65 46.86,8.37 87.1,22.78 120.83,43.24 33.66,20.46 60.69,48.08 81.15,82.99 20.41,34.82 30.63,77.55 30.63,128.03 0,103.38 -36.64,173.68 -109.99,211 -73.39,37.27 -162.91,55.92 -268.69,55.92 -89.03,0 -171.36,9.02 -247.07,27.03 -75.76,18.05 -140.72,48.12 -194.79,90.22 -54.12,42.03 -96.83,96.15 -128.08,162.3 -31.25,66.1 -46.87,147.25 -46.87,243.47" />
      <path
         inkscape:connector-curvature="0"
         id="path4746"
         style="fill:#0f85d1;fill-opacity:1;fill-rule:nonzero;stroke:none"
         d="m 6177.3,1872.07 c 0,-50.47 10.23,-98.61 30.63,-144.24 20.41,-45.72 47.49,-86.04 81.22,-120.83 33.6,-34.9 73.9,-61.94 120.82,-81.16 46.87,-19.28 95.55,-28.89 146.07,-28.89 52.83,0 102.18,9.61 147.87,28.89 45.63,19.22 85.98,46.26 120.84,81.16 34.84,34.79 61.88,75.11 81.15,120.83 19.22,45.63 28.89,93.77 28.89,144.24 l 0,537.43 c 0,50.52 -10.29,98.6 -30.69,144.3 -20.46,45.63 -47.49,85.93 -81.15,120.83 -33.67,34.82 -73.97,61.88 -120.84,81.16 -46.87,19.21 -95.59,28.88 -146.07,28.88 -52.94,0 -102.22,-9.67 -147.86,-28.88 -45.74,-19.28 -86.05,-46.34 -120.84,-81.16 -34.89,-34.9 -61.98,-75.2 -81.2,-120.83 -19.23,-45.7 -28.84,-93.78 -28.84,-144.3 l 0,-537.43 z m -274.14,537.43 c 0,88.96 16.79,173.13 50.52,252.49 33.66,79.35 80.54,148.45 140.67,207.41 60.08,58.9 129.21,105.18 207.38,138.9 78.12,33.61 162.88,50.47 254.31,50.47 88.92,0 173.1,-16.86 252.47,-50.47 79.4,-33.72 148.48,-80 207.43,-138.9 58.9,-58.96 105.77,-128.06 140.61,-207.41 34.85,-79.36 52.34,-163.53 52.34,-252.49 l 0,-537.43 c 0,-88.96 -16.87,-173.13 -50.48,-252.48 -33.72,-79.36 -80.59,-148.49 -140.67,-207.39 -60.14,-58.95 -129.83,-105.23 -209.23,-138.87 -79.37,-33.69 -163.55,-50.47 -252.47,-50.47 -69.79,0 -137.07,10.79 -201.99,32.43 -64.9,21.64 -123.86,51.68 -176.75,90.17 l 0,-605.964 c 0,-38.433 -13.88,-70.867 -41.48,-97.363 -27.64,-26.473 -59.51,-39.703 -95.6,-39.703 -38.49,0 -70.92,13.23 -97.39,39.703 -26.47,26.496 -39.67,58.93 -39.67,97.363 l 0,1670.004" />
      <path
         inkscape:connector-curvature="0"
         id="path4748"
         style="fill:#0f85d1;fill-opacity:1;fill-rule:nonzero;stroke:none"
         d="m 7469.26,2921.69 c 0,38.44 13.16,70.9 39.62,97.39 26.48,26.42 58.91,39.69 97.4,39.69 36.08,0 67.95,-13.27 95.6,-39.69 27.66,-26.49 41.48,-58.95 41.48,-97.39 l 0,-1561.78 c 0,-38.53 -13.21,-70.96 -39.67,-97.43 -26.48,-26.39 -58.97,-39.62 -97.41,-39.62 -36.03,0 -67.95,13.23 -95.54,39.62 -27.71,26.47 -41.48,58.9 -41.48,97.43 l 0,1561.78" />
      <path
         inkscape:connector-curvature="0"
         id="path4750"
         style="fill:#0f85d1;fill-opacity:1;fill-rule:nonzero;stroke:none"
         d="m 8039.82,2409.5 c 0,88.96 16.81,173.13 50.47,252.49 33.67,79.35 80.54,148.45 140.67,207.41 60.08,58.9 129.21,105.18 207.44,138.9 78.07,33.61 162.82,50.47 254.26,50.47 88.91,0 173.15,-16.86 252.49,-50.47 79.3,-33.72 148.48,-80 207.44,-138.9 58.87,-58.96 105.76,-128.06 140.66,-207.41 34.81,-79.36 52.21,-163.53 52.21,-252.49 l 0,-1049.59 c 0,-38.53 -13.76,-70.96 -41.46,-97.43 -27.62,-26.39 -59.5,-39.62 -95.55,-39.62 -38.45,0 -70.96,13.23 -97.33,39.62 -26.55,26.47 -39.69,58.9 -39.69,97.43 l 0,1049.59 c 0,50.52 -10.3,98.6 -30.73,144.3 -20.42,45.63 -47.51,85.93 -81.16,120.83 -33.66,34.82 -73.98,61.88 -120.81,81.16 -46.88,19.21 -95.55,28.88 -146.07,28.88 -52.95,0 -102.23,-9.67 -147.93,-28.88 -45.68,-19.28 -85.98,-46.34 -120.77,-81.16 -34.9,-34.9 -61.93,-75.2 -81.16,-120.83 -19.28,-45.7 -28.89,-93.78 -28.89,-144.3 l 0,-1049.59 c 0,-38.53 -13.82,-70.96 -41.48,-97.43 -27.64,-26.39 -59.51,-39.62 -95.58,-39.62 -38.45,0 -70.94,13.23 -97.35,39.62 -26.52,26.47 -39.68,58.9 -39.68,97.43 l 0,1049.59" />
      <path
         inkscape:connector-curvature="0"
         id="path4752"
         style="fill:#0f85d1;fill-opacity:1;fill-rule:nonzero;stroke:none"
         d="m 9872.77,1872.07 c 0,-50.47 9.59,-98.61 28.86,-144.24 19.18,-45.72 46.26,-86.04 81.16,-120.83 34.81,-34.9 75.11,-61.94 120.81,-81.16 45.7,-19.28 95,-28.89 147.9,-28.89 50.4,0 99.2,9.61 146.1,28.89 46.9,19.22 87.1,46.26 120.8,81.16 33.6,34.79 60.7,75.11 81.2,120.83 20.3,45.63 30.6,93.77 30.6,144.24 l 0,537.43 c 0,50.52 -9.6,98.6 -28.8,144.3 -19.3,45.63 -46.4,85.93 -81.2,120.83 -34.9,34.82 -75.2,61.88 -120.8,81.16 -45.8,19.21 -95.1,28.88 -147.9,28.88 -50.5,0 -99.2,-9.67 -146.1,-28.88 -46.9,-19.28 -87.2,-46.34 -120.83,-81.16 -33.66,-34.9 -60.74,-75.2 -81.16,-120.83 -20.43,-45.7 -30.64,-93.78 -30.64,-144.3 l 0,-537.43 z m -274.13,537.43 c 0,88.96 17.4,173.13 52.31,252.49 34.8,79.35 81.69,148.45 140.66,207.41 58.87,58.9 128.14,105.18 207.43,138.9 79.26,33.61 163.46,50.47 252.46,50.47 88.9,0 173.1,-16.86 252.5,-50.47 79.4,-33.72 149.1,-80 209.2,-138.9 60.1,-58.96 107,-128.06 140.6,-207.41 33.7,-79.36 50.6,-163.53 50.6,-252.49 l 0,-1670.004 c 0,-38.433 -13.3,-70.867 -39.7,-97.363 -26.6,-26.473 -59,-39.703 -97.4,-39.703 -36,0 -68,13.23 -95.6,39.703 -27.7,26.496 -41.5,58.93 -41.5,97.363 l 0,605.964 c -52.9,-38.49 -111.8,-68.53 -176.7,-90.17 -65,-21.64 -132.3,-32.43 -202,-32.43 -91.5,0 -176.2,16.78 -254.32,50.47 -78.14,33.64 -147.23,79.92 -207.35,138.87 -60.12,58.9 -107.01,128.03 -140.66,207.39 -33.66,79.35 -50.53,163.52 -50.53,252.48 l 0,537.43" />
      <path
         inkscape:connector-curvature="0"
         id="path4754"
         style="fill:#0f85d1;fill-opacity:1;fill-rule:nonzero;stroke:none"
         d="m 11197.2,2921.69 c 0,38.44 13.2,70.9 39.6,97.39 26.4,26.42 58.9,39.69 97.5,39.69 36,0 67.9,-13.27 95.5,-39.69 27.6,-26.49 41.5,-58.95 41.5,-97.39 l 0,-1049.62 c 0,-50.47 9.6,-98.61 28.8,-144.24 19.3,-45.72 46.4,-86.04 81.3,-120.83 34.7,-34.9 75,-61.94 120.8,-81.16 45.6,-19.28 94.9,-28.89 147.8,-28.89 50.6,0 99.2,9.61 146.1,28.89 46.9,19.22 87.1,46.26 120.9,81.16 33.5,34.79 60.6,75.11 81.1,120.83 20.4,45.63 30.7,93.77 30.7,144.24 l 0,1049.62 c 0,38.44 13.2,70.9 39.7,97.39 26.3,26.42 58.8,39.69 97.3,39.69 36.1,0 68,-13.27 95.6,-39.69 27.6,-26.49 41.5,-58.95 41.5,-97.39 l 0,-1049.62 c 0,-88.96 -17.5,-173.13 -52.3,-252.48 -34.9,-79.36 -81.8,-148.49 -140.7,-207.39 -58.9,-58.95 -128,-105.23 -207.4,-138.87 -79.3,-33.69 -163.5,-50.47 -252.5,-50.47 -91.4,0 -176.2,16.78 -254.2,50.47 -78.2,33.64 -147.3,79.92 -207.5,138.87 -60.1,58.9 -107,128.03 -140.6,207.39 -33.8,79.35 -50.5,163.52 -50.5,252.48 l 0,1049.62" />
      <path
         inkscape:connector-curvature="0"
         id="path4756"
         style="fill:#0f85d1;fill-opacity:1;fill-rule:nonzero;stroke:none"
         d="m 13087.9,2268.85 757.4,0 0,140.65 c 0,50.52 -10.2,98.6 -30.6,144.3 -20.5,45.63 -47.5,85.93 -81.2,120.83 -33.7,34.82 -74,61.88 -120.8,81.16 -46.9,19.21 -95.6,28.88 -146.1,28.88 -53,0 -102.2,-9.67 -147.9,-28.88 -45.6,-19.28 -85.9,-46.34 -120.8,-81.16 -34.9,-34.9 -61.9,-75.2 -81.2,-120.83 -19.3,-45.7 -28.8,-93.78 -28.8,-144.3 l 0,-140.65 z m -274.2,140.65 c 0,88.96 16.8,173.13 50.5,252.49 33.7,79.35 80.6,148.45 140.8,207.41 60,58.9 129.2,105.18 207.3,138.9 78.1,33.61 162.9,50.47 254.3,50.47 88.9,0 173.1,-16.86 252.5,-50.47 79.3,-33.72 148.4,-80 207.4,-138.9 58.8,-58.96 105.7,-128.06 140.6,-207.41 34.9,-79.36 52.3,-163.53 52.3,-252.49 l 0,-277.7 c 0,-38.51 -13.3,-70.98 -39.6,-97.41 -26.5,-26.48 -59,-39.69 -97.4,-39.69 l -894.5,0 0,-122.63 c 0,-50.47 10.1,-98.61 30.7,-144.24 20.3,-45.72 47.4,-86.04 81.1,-120.83 33.7,-34.9 73.9,-61.94 120.8,-81.16 46.9,-19.28 95.6,-28.89 146.1,-28.89 77,0 146.1,19.85 207.4,59.52 61.4,39.68 107.6,93.19 138.8,160.51 l 3.6,10.85 c 9.6,26.42 25.9,47.44 48.8,63.09 22.8,15.62 48.7,23.43 77.5,23.43 38.5,0 70.9,-13.85 97.4,-41.47 26.4,-27.63 39.7,-59.5 39.7,-95.57 0,-16.84 -6.1,-38.51 -18.1,-64.92 -50.5,-115.44 -128.7,-209.2 -234.4,-281.34 -105.9,-72.13 -226,-108.19 -360.7,-108.19 -89,0 -173.1,16.78 -252.5,50.47 -79.3,33.64 -148.5,79.92 -207.4,138.87 -59,58.9 -105.8,128.03 -140.7,207.39 -34.8,79.35 -52.3,163.52 -52.3,252.48 l 0,537.43" />
      <path
         inkscape:connector-curvature="0"
         id="path4758"
         style="fill:#231f20;fill-opacity:1;fill-rule:nonzero;stroke:none"
         d="m 5375.6,2706.58 c 0,53.47 43.32,96.8 96.76,96.8 53.46,0 96.79,-43.33 96.79,-96.8 0,-53.42 -43.33,-96.75 -96.79,-96.75 -53.44,0 -96.76,43.33 -96.76,96.75" />
      <path
         inkscape:connector-curvature="0"
         id="path4760"
         style="fill:#231f20;fill-opacity:1;fill-rule:nonzero;stroke:none"
         d="m 4435.9,1667.75 c 0,53.51 43.33,96.83 96.78,96.83 53.5,0 96.83,-43.32 96.83,-96.83 0,-53.42 -43.33,-96.78 -96.83,-96.78 -53.45,0 -96.78,43.36 -96.78,96.78" />
      <path
         inkscape:connector-curvature="0"
         id="path4762"
         style="fill:#231f20;fill-opacity:1;fill-rule:nonzero;stroke:none"
         d="m 5942.21,742.258 c 0,53.465 43.34,96.801 96.79,96.801 53.44,0 96.77,-43.336 96.77,-96.801 0,-53.461 -43.33,-96.762 -96.77,-96.762 -53.45,0 -96.79,43.301 -96.79,96.762" />
      <path
         inkscape:connector-curvature="0"
         id="path4764"
         style="fill:#231f20;fill-opacity:1;fill-rule:nonzero;stroke:none"
         d="m 7509.84,1370.28 c 0,53.5 43.39,96.8 96.84,96.8 53.44,0 96.78,-43.3 96.78,-96.8 0,-53.45 -43.34,-96.75 -96.78,-96.75 -53.45,0 -96.84,43.3 -96.84,96.75" />
      <path
         inkscape:connector-curvature="0"
         id="path4766"
         style="fill:#231f20;fill-opacity:1;fill-rule:nonzero;stroke:none"
         d="m 8076.52,1370.28 c 0,53.5 43.28,96.8 96.78,96.8 53.45,0 96.78,-43.3 96.78,-96.8 0,-53.45 -43.33,-96.75 -96.78,-96.75 -53.5,0 -96.78,43.3 -96.78,96.75" />
      <path
         inkscape:connector-curvature="0"
         id="path4768"
         style="fill:#231f20;fill-opacity:1;fill-rule:nonzero;stroke:none"
         d="m 9115.29,1370.28 c 0,53.5 43.34,96.8 96.8,96.8 53.46,0 96.79,-43.3 96.79,-96.8 0,-53.45 -43.33,-96.75 -96.79,-96.75 -53.46,0 -96.8,43.3 -96.8,96.75" />
      <path
         inkscape:connector-curvature="0"
         id="path4770"
         style="fill:#231f20;fill-opacity:1;fill-rule:nonzero;stroke:none"
         d="m 10673.6,742.258 c 0,53.465 43.2,96.801 96.7,96.801 53.4,0 96.8,-43.336 96.8,-96.801 0,-53.426 -43.4,-96.762 -96.8,-96.762 -53.5,0 -96.7,43.336 -96.7,96.762" />
      <path
         inkscape:connector-curvature="0"
         id="path4772"
         style="fill:#231f20;fill-opacity:1;fill-rule:nonzero;stroke:none"
         d="m 7509.84,2914.36 c 0,53.47 43.39,96.81 96.84,96.81 53.44,0 96.78,-43.34 96.78,-96.81 0,-53.48 -43.34,-96.81 -96.78,-96.81 -53.45,0 -96.84,43.33 -96.84,96.81" />
      <path
         inkscape:connector-curvature="0"
         id="path4774"
         style="fill:#231f20;fill-opacity:1;fill-rule:nonzero;stroke:none"
         d="m 11240.1,2914.36 c 0,53.47 43.4,96.81 96.8,96.81 53.5,0 96.9,-43.34 96.9,-96.81 0,-53.48 -43.4,-96.81 -96.9,-96.81 -53.4,0 -96.8,43.33 -96.8,96.81" />
      <path
         inkscape:connector-curvature="0"
         id="path4776"
         style="fill:#231f20;fill-opacity:1;fill-rule:nonzero;stroke:none"
         d="m 12270.9,2914.36 c 0,53.47 43.3,96.81 96.7,96.81 53.5,0 96.8,-43.34 96.8,-96.81 0,-53.48 -43.3,-96.81 -96.8,-96.81 -53.4,0 -96.7,43.33 -96.7,96.81" />
      <path
         inkscape:connector-curvature="0"
         id="path4778"
         style="fill:#231f20;fill-opacity:1;fill-rule:nonzero;stroke:none"
         d="m 13843.3,1670.84 c 0,53.45 43.3,96.78 96.8,96.78 53.4,0 96.7,-43.33 96.7,-96.78 0,-53.47 -43.3,-96.77 -96.7,-96.77 -53.5,0 -96.8,43.3 -96.8,96.77" />
      <path
         inkscape:connector-curvature="0"
         id="path4780"
         style="fill:#ffffff;fill-opacity:1;fill-rule:nonzero;stroke:none"
         d="m 7569.7,2915.73 c 0,21.58 17.53,39.12 39.16,39.12 21.59,0 39.12,-17.54 39.12,-39.12 0,-21.64 -17.53,-39.17 -39.12,-39.17 -21.63,0 -39.16,17.53 -39.16,39.17" />
      <path
         inkscape:connector-curvature="0"
         id="path4782"
         style="fill:#ffffff;fill-opacity:1;fill-rule:nonzero;stroke:none"
         d="m 11298.6,2915.73 c 0,21.58 17.6,39.12 39.2,39.12 21.6,0 39.2,-17.54 39.2,-39.12 0,-21.64 -17.6,-39.17 -39.2,-39.17 -21.6,0 -39.2,17.53 -39.2,39.17" />
      <path
         inkscape:connector-curvature="0"
         id="path4784"
         style="fill:#ffffff;fill-opacity:1;fill-rule:nonzero;stroke:none"
         d="m 12328,2915.73 c 0,21.58 17.5,39.12 39.2,39.12 21.6,0 39.1,-17.54 39.1,-39.12 0,-21.64 -17.5,-39.17 -39.1,-39.17 -21.7,0 -39.2,17.53 -39.2,39.17" />
      <path
         inkscape:connector-curvature="0"
         id="path4786"
         style="fill:#ffffff;fill-opacity:1;fill-rule:nonzero;stroke:none"
         d="m 13900.9,1670.84 c 0,21.64 17.6,39.14 39.2,39.14 21.5,0 39.1,-17.5 39.1,-39.14 0,-21.57 -17.6,-39.11 -39.1,-39.11 -21.6,0 -39.2,17.54 -39.2,39.11" />
      <path
         inkscape:connector-curvature="0"
         id="path4788"
         style="fill:#ffffff;fill-opacity:1;fill-rule:nonzero;stroke:none"
         d="m 10731.2,744.664 c 0,21.613 17.5,39.152 39.1,39.152 21.7,0 39.1,-17.539 39.1,-39.152 0,-21.598 -17.4,-39.137 -39.1,-39.137 -21.6,0 -39.1,17.539 -39.1,39.137" />
      <path
         inkscape:connector-curvature="0"
         id="path4790"
         style="fill:#ffffff;fill-opacity:1;fill-rule:nonzero;stroke:none"
         d="m 9172.93,1370.3 c 0,21.61 17.58,39.15 39.16,39.15 21.57,0 39.16,-17.54 39.16,-39.15 0,-21.6 -17.59,-39.14 -39.16,-39.14 -21.58,0 -39.16,17.54 -39.16,39.14" />
      <path
         inkscape:connector-curvature="0"
         id="path4792"
         style="fill:#ffffff;fill-opacity:1;fill-rule:nonzero;stroke:none"
         d="m 8134.97,1370.3 c 0,21.61 17.54,39.15 39.17,39.15 21.59,0 39.12,-17.54 39.12,-39.15 0,-21.6 -17.53,-39.14 -39.12,-39.14 -21.63,0 -39.17,17.54 -39.17,39.14" />
      <path
         inkscape:connector-curvature="0"
         id="path4794"
         style="fill:#ffffff;fill-opacity:1;fill-rule:nonzero;stroke:none"
         d="m 7568.34,1370.3 c 0,21.61 17.54,39.15 39.18,39.15 21.58,0 39.12,-17.54 39.12,-39.15 0,-21.6 -17.54,-39.14 -39.12,-39.14 -21.64,0 -39.18,17.54 -39.18,39.14" />
      <path
         inkscape:connector-curvature="0"
         id="path4796"
         style="fill:#ffffff;fill-opacity:1;fill-rule:nonzero;stroke:none"
         d="m 5999.87,742.281 c 0,21.633 17.49,39.145 39.13,39.145 21.63,0 39.11,-17.512 39.11,-39.145 0,-21.64 -17.48,-39.117 -39.11,-39.117 -21.64,0 -39.13,17.477 -39.13,39.117" />
      <path
         inkscape:connector-curvature="0"
         id="path4798"
         style="fill:#ffffff;fill-opacity:1;fill-rule:nonzero;stroke:none"
         d="m 4493.56,1667.75 c 0,21.64 17.54,39.18 39.12,39.18 21.64,0 39.18,-17.54 39.18,-39.18 0,-21.57 -17.54,-39.11 -39.18,-39.11 -21.58,0 -39.12,17.54 -39.12,39.11" />
      <path
         inkscape:connector-curvature="0"
         id="path4800"
         style="fill:#ffffff;fill-opacity:1;fill-rule:nonzero;stroke:none"
         d="m 5433.25,2706.58 c 0,21.64 17.48,39.14 39.11,39.14 21.59,0 39.12,-17.5 39.12,-39.14 0,-21.62 -17.53,-39.12 -39.12,-39.12 -21.63,0 -39.11,17.5 -39.11,39.12" />
      <path
         inkscape:connector-curvature="0"
         id="path4802"
         style="fill:#231f20;fill-opacity:1;fill-rule:nonzero;stroke:none"
         d="m 550.594,2482.62 c -0.024,-88.57 71.812,-160.42 160.441,-160.45 l 953.805,-0.05 -119.76,-207.3 c -44.3,-76.7 -18.05,-174.91 58.68,-219.16 76.67,-44.34 174.81,-18.06 219.11,58.65 l 258.9,447.96 c 0.21,0.42 0.37,0.82 0.53,1.2 3.36,5.84 6.31,11.82 8.93,18.06 0.27,0.87 0.56,1.71 0.89,2.54 2.01,5.12 3.72,10.35 5.22,15.69 0.5,1.94 1,3.81 1.44,5.72 1.1,4.54 1.93,9.18 2.65,13.89 0.25,1.78 0.59,3.56 0.8,5.4 0.66,5.85 1.08,11.74 1.07,17.77 0,0.23 -0.07,0.44 -0.07,0.62 -0.02,4.91 -0.49,9.74 -0.96,14.57 -0.23,2.35 -0.24,4.7 -0.54,6.97 -0.34,2.52 -1.02,4.96 -1.48,7.43 -3.45,18.25 -9.65,35.57 -18.71,51.12 0,0.03 0,0.05 -0.06,0.1 -0.05,0.03 -0.05,0.08 -0.1,0.1 -9.91,17.1 -23.18,32.4 -39.36,45.14 -0.28,0.25 -0.63,0.56 -0.96,0.87 -1.41,1.04 -2.99,1.87 -4.35,2.91 -4.34,3.15 -8.73,6.22 -13.41,8.95 -0.05,0.06 -0.11,0.09 -0.16,0.13 -5.3,3.1 -10.71,5.74 -16.16,8.12 -1.81,0.8 -3.73,1.45 -5.58,2.15 -4.23,1.67 -8.45,3.19 -12.78,4.47 -1.96,0.58 -3.82,1.11 -5.79,1.6 -5.35,1.35 -10.63,2.47 -16.03,3.27 -0.91,0.18 -1.81,0.37 -2.7,0.5 -6.63,0.84 -13.21,1.29 -19.85,1.35 -0.44,0 -0.89,0.09 -1.34,0.06 l -1231.875,0.08 c -88.601,0.02 -160.441,-71.81 -160.441,-160.43" />
      <path
         inkscape:connector-curvature="0"
         id="path4804"
         style="fill:#ffffff;fill-opacity:1;fill-rule:nonzero;stroke:none"
         d="m 750.102,2415.59 c -37.028,-21.57 -84.543,-9.08 -106.075,27.96 -21.629,37.06 -9.089,84.51 27.969,106.13 36.984,21.54 84.465,9.03 106.047,-28.01 21.578,-37 9.074,-84.49 -27.941,-106.08" />
      <path
         inkscape:connector-curvature="0"
         id="path4806"
         style="fill:#0f85d1;fill-opacity:1;fill-rule:nonzero;stroke:none"
         d="m 710.777,2522.78 c -6.972,-0.03 -13.875,-1.91 -19.929,-5.45 -9.313,-5.41 -15.903,-14.12 -18.645,-24.47 -2.73,-10.36 -1.293,-21.2 4.145,-30.44 10.703,-18.44 36.242,-25.32 54.945,-14.49 9.219,5.4 15.809,14.11 18.551,24.45 2.75,10.36 1.293,21.18 -4.145,30.43 -7.183,12.38 -20.59,20.03 -34.922,19.97 l 0,0 z m 0.805,-155.2 c -41.027,-0.16 -79.332,21.73 -99.937,57.14 -15.454,26.51 -19.676,57.51 -11.829,87.23 7.805,29.71 26.762,54.6 53.336,70.06 17.403,10.15 37.254,15.56 57.321,15.64 41.027,0.17 79.269,-21.72 99.937,-57.13 31.922,-54.76 13.379,-125.28 -41.394,-157.26 -17.5,-10.17 -37.368,-15.59 -57.434,-15.68 l 0,0" />
      <path
         inkscape:connector-curvature="0"
         id="path4808"
         style="fill:#ffffff;fill-opacity:1;fill-rule:nonzero;stroke:none"
         d="m 1981.94,2415.54 c -37.05,-21.59 -84.54,-9.06 -106.12,27.95 -21.61,37.02 -9.04,84.55 27.96,106.11 37.01,21.55 84.55,9.04 106.11,-27.97 21.56,-37.01 9.06,-84.53 -27.95,-106.09" />
      <path
         inkscape:connector-curvature="0"
         id="path4810"
         style="fill:#0f85d1;fill-opacity:1;fill-rule:nonzero;stroke:none"
         d="m 1942.61,2522.71 c -6.97,-0.03 -13.88,-1.92 -19.98,-5.43 -9.25,-5.42 -15.85,-14.12 -18.62,-24.48 -2.71,-10.4 -1.25,-21.2 4.11,-30.47 10.76,-18.35 36.36,-25.3 54.97,-14.45 9.25,5.39 15.85,14.09 18.56,24.43 2.72,10.39 1.27,21.19 -4.11,30.47 -7.19,12.36 -20.6,19.99 -34.93,19.93 l 0,0 z m 0.81,-155.17 c -41.03,-0.16 -79.35,21.73 -99.94,57.11 -15.46,26.52 -19.68,57.5 -11.82,87.21 7.8,29.71 26.74,54.61 53.27,70.09 17.44,10.15 37.26,15.54 57.38,15.62 41.03,0.16 79.27,-21.71 99.87,-57.09 15.52,-26.54 19.75,-57.52 11.89,-87.21 -7.8,-29.73 -26.75,-54.62 -53.28,-70.08 -17.43,-10.16 -37.31,-15.56 -57.37,-15.65 l 0,0" />
      <path
         inkscape:connector-curvature="0"
         id="path4812"
         style="fill:#ffffff;fill-opacity:1;fill-rule:nonzero;stroke:none"
         d="m 1723.06,1967.55 c -36.99,-21.61 -84.54,-9.06 -106.11,27.96 -21.57,37.01 -9.06,84.49 28,106.08 37,21.56 84.5,9.06 106.07,-27.94 21.61,-37.01 9.04,-84.56 -27.96,-106.1" />
      <path
         inkscape:connector-curvature="0"
         id="path4814"
         style="fill:#0f85d1;fill-opacity:1;fill-rule:nonzero;stroke:none"
         d="m 1683.72,2074.71 c -6.96,-0.03 -13.86,-1.9 -19.92,-5.45 -19.12,-11.11 -25.64,-35.83 -14.5,-54.9 10.71,-18.4 36.29,-25.42 54.91,-14.48 19.13,11.14 25.65,35.79 14.51,54.91 -7.26,12.36 -20.61,19.98 -35,19.92 l 0,0 z m 0.82,-155.18 c -40.98,-0.16 -79.27,21.72 -99.89,57.14 -31.92,54.79 -13.32,125.35 41.46,157.3 17.44,10.13 37.26,15.52 57.31,15.59 41.03,0.19 79.33,-21.68 99.94,-57.08 31.98,-54.8 13.33,-125.32 -41.46,-157.3 -17.38,-10.13 -37.24,-15.55 -57.36,-15.65 l 0,0" />
    </g>
  </g>
</svg>
